<svg width="529" height="523" viewBox="0 0 529 523" fill="none" xmlns="http://www.w3.org/2000/svg">
<path d="M261.548 451.097V489.233C261.548 507.86 276.632 522.958 295.24 522.958H491.202C511.72 522.958 528.359 506.307 528.359 485.764V142.416C528.359 123.477 513.024 108.127 494.104 108.127H469.749C451.741 108.127 437.146 93.5132 437.146 75.4921V34.0006C437.146 15.2243 421.942 0 403.18 0H37.1565C16.6387 0 0 16.6507 0 37.1937V381.81C0 401.947 16.3081 418.271 36.4254 418.271H228.75C246.861 418.271 261.544 432.969 261.544 451.097H261.548Z" fill="#16493C"/>
</svg>
