<svg width="297" height="320" viewBox="0 0 297 320" fill="none" xmlns="http://www.w3.org/2000/svg">
<path d="M0.499993 164.448L0.499987 28.082C0.500069 12.8461 12.8343 0.499999 28.0527 0.499999L221.376 0.49999C231.314 0.500221 239.373 8.56773 239.373 18.5176L239.373 29.8633C239.373 42.4595 249.578 52.6758 262.162 52.6758L271.982 52.6758C285.526 52.6758 296.5 63.6678 296.5 77.2197L296.5 252.288C296.5 263.898 287.096 273.311 275.5 273.312L258.572 273.312C251.059 273.312 244.968 279.41 244.968 286.93L244.968 299.839C244.968 310.699 236.176 319.5 225.328 319.5L162.993 319.5C149.835 319.5 139.168 308.822 139.168 295.648L139.168 213.763C139.168 201.868 129.534 192.224 117.65 192.224L28.2451 192.224C12.9222 192.223 0.500109 179.789 0.499993 164.448Z" stroke="#274B41"/>
</svg>
