<svg width="529" height="523" viewBox="0 0 529 523" fill="none" xmlns="http://www.w3.org/2000/svg">
<path d="M37.1562 0.5H403.18C421.665 0.5 436.646 15.5003 436.646 34.001V75.4922C436.647 93.7889 451.465 108.627 469.749 108.627H494.104C512.747 108.627 527.859 123.752 527.859 142.416V485.765C527.859 506.032 511.443 522.458 491.202 522.458H295.24C276.908 522.458 262.048 507.584 262.048 489.232V450.598H262.037C261.77 432.424 246.97 417.771 228.75 417.771H36.4258C16.5851 417.771 0.5 401.671 0.5 381.81V37.1934C0.500163 16.9263 16.9152 0.500153 37.1562 0.5Z" stroke="#274B41"/>
</svg>
