<svg width="1090" height="532" viewBox="0 0 1090 532" fill="none" xmlns="http://www.w3.org/2000/svg">
  <path d="M2.52711e-06 211.919L2.84908e-06 238.919C2.84908e-06 238.919 3.34125e-06 280.192 3.56316e-06 298.8L5.89998e-06 494.763C6.14466e-06 515.28 16.6506 531.919 37.1936 531.919L947 531.919C965.939 531.919 981.289 516.584 981.289 497.663L981.289 473.308C981.289 455.301 995.903 440.706 1013.92 440.706L1055.42 440.706C1074.19 440.706 1089.42 425.502 1089.42 406.74L1089.42 37.1565C1089.42 16.6387 1072.77 1.98557e-07 1052.22 4.4353e-07C1052.22 4.4353e-07 161.285 0.000335716 141.148 0.000335956C129.607 0.000336094 84.9379 0.00045502 48.9009 0.000556538C21.8838 0.000632646 2.61182e-07 21.9023 5.83356e-07 48.9193C7.99319e-07 67.0295 1.84739e-06 154.919 1.84739e-06 154.919L2.52711e-06 211.919Z" fill="white"/>
</svg>
