<svg width="719" height="532" viewBox="0 0 719 532" fill="none" xmlns="http://www.w3.org/2000/svg">
  <path d="M718.802 320.049L718.802 293.045C718.802 293.045 718.802 251.766 718.802 233.155L718.802 37.1623C718.802 16.6413 700.254 0.00011372 677.37 0.000113993L158.648 -1.89186e-06C137.55 -1.64027e-06 120.45 15.3372 120.45 34.2606L120.45 58.6194C120.45 76.6299 104.171 91.2265 84.0961 91.2265L37.8757 91.2265C16.9594 91.2265 -5.07483e-06 106.433 -4.85106e-06 125.198L4.33316e-07 494.837C6.78026e-07 515.358 18.5484 531.999 41.4327 531.999C41.4327 531.999 539.135 532 561.567 532C575.024 532 628.92 532 669.893 532C696.915 532 718.802 510.095 718.802 483.074C718.802 464.961 718.802 377.058 718.802 377.058L718.802 320.049Z" fill="white"/>
</svg>
